<mxfile host="65bd71144e">
    <diagram id="3MYqwu3gBMpGz7Iqad5_" name="Page-1">
        <mxGraphModel dx="990" dy="677" grid="1" gridSize="10" guides="1" tooltips="1" connect="1" arrows="1" fold="1" page="1" pageScale="1" pageWidth="827" pageHeight="1169" math="0" shadow="0">
            <root>
                <mxCell id="0"/>
                <mxCell id="1" style="locked=1;" parent="0"/>
                <mxCell id="3" value="object" style="" parent="0"/>
                <mxCell id="36" value="" style="edgeStyle=none;html=1;" parent="3" source="39" target="45" edge="1">
                    <mxGeometry relative="1" as="geometry"/>
                </mxCell>
                <mxCell id="37" value="" style="edgeStyle=none;html=1;" parent="3" source="39" target="47" edge="1">
                    <mxGeometry relative="1" as="geometry"/>
                </mxCell>
                <mxCell id="38" style="edgeStyle=none;html=1;" parent="3" source="39" target="49" edge="1">
                    <mxGeometry relative="1" as="geometry"/>
                </mxCell>
                <mxCell id="65" value="Provide" style="edgeStyle=orthogonalEdgeStyle;shape=flexArrow;html=1;" parent="3" source="39" target="43" edge="1">
                    <mxGeometry y="-20" relative="1" as="geometry">
                        <mxPoint as="offset"/>
                    </mxGeometry>
                </mxCell>
                <mxCell id="39" value="Regiment" style="ellipse;whiteSpace=wrap;html=1;" parent="3" vertex="1">
                    <mxGeometry x="360" y="80" width="120" height="80" as="geometry"/>
                </mxCell>
                <mxCell id="64" value="Provide" style="edgeStyle=orthogonalEdgeStyle;shape=flexArrow;html=1;" parent="3" source="40" target="39" edge="1">
                    <mxGeometry y="-20" relative="1" as="geometry">
                        <mxPoint as="offset"/>
                    </mxGeometry>
                </mxCell>
                <mxCell id="40" value="Unit" style="ellipse;whiteSpace=wrap;html=1;" parent="3" vertex="1">
                    <mxGeometry x="640" y="80" width="120" height="80" as="geometry"/>
                </mxCell>
                <mxCell id="42" style="edgeStyle=none;html=1;shape=link;" parent="3" source="43" target="50" edge="1">
                    <mxGeometry relative="1" as="geometry"/>
                </mxCell>
                <mxCell id="43" value="Regiment &lt;br&gt;Manager" style="ellipse;whiteSpace=wrap;html=1;" parent="3" vertex="1">
                    <mxGeometry x="80" y="80" width="120" height="80" as="geometry"/>
                </mxCell>
                <mxCell id="44" style="edgeStyle=elbowEdgeStyle;html=1;shape=link;rounded=0;" parent="3" source="45" target="57" edge="1">
                    <mxGeometry relative="1" as="geometry">
                        <Array as="points">
                            <mxPoint x="260" y="340"/>
                        </Array>
                    </mxGeometry>
                </mxCell>
                <mxCell id="45" value="List&lt;br&gt;Highlights&lt;br&gt;Preselection" style="ellipse;whiteSpace=wrap;html=1;" parent="3" vertex="1">
                    <mxGeometry x="200" y="200" width="120" height="80" as="geometry"/>
                </mxCell>
                <mxCell id="46" value="" style="edgeStyle=none;html=1;shape=link;" parent="3" source="47" target="57" edge="1">
                    <mxGeometry relative="1" as="geometry"/>
                </mxCell>
                <mxCell id="47" value="List&lt;br&gt;Highlights&lt;br&gt;Selection" style="ellipse;whiteSpace=wrap;html=1;" parent="3" vertex="1">
                    <mxGeometry x="360" y="200" width="120" height="80" as="geometry"/>
                </mxCell>
                <mxCell id="48" style="edgeStyle=orthogonalEdgeStyle;html=1;shape=link;rounded=0;" parent="3" source="49" target="57" edge="1">
                    <mxGeometry relative="1" as="geometry">
                        <Array as="points">
                            <mxPoint x="580" y="340"/>
                        </Array>
                    </mxGeometry>
                </mxCell>
                <mxCell id="49" value="List&lt;br&gt;Highlights&lt;br&gt;Placement" style="ellipse;whiteSpace=wrap;html=1;" parent="3" vertex="1">
                    <mxGeometry x="520" y="200" width="120" height="80" as="geometry"/>
                </mxCell>
                <mxCell id="50" value="IRegister" style="rounded=0;whiteSpace=wrap;html=1;" parent="3" vertex="1">
                    <mxGeometry x="80" y="330" width="120" height="60" as="geometry"/>
                </mxCell>
                <mxCell id="51" value="" style="edgeStyle=none;html=1;" parent="3" source="52" target="63" edge="1">
                    <mxGeometry relative="1" as="geometry"/>
                </mxCell>
                <mxCell id="52" value="PreSelection &lt;br&gt;Manager" style="ellipse;whiteSpace=wrap;html=1;" parent="3" vertex="1">
                    <mxGeometry x="440" y="440" width="120" height="80" as="geometry"/>
                </mxCell>
                <mxCell id="54" style="edgeStyle=orthogonalEdgeStyle;html=1;" parent="3" source="57" target="59" edge="1">
                    <mxGeometry relative="1" as="geometry"/>
                </mxCell>
                <mxCell id="55" style="edgeStyle=orthogonalEdgeStyle;html=1;" parent="3" source="57" target="52" edge="1">
                    <mxGeometry relative="1" as="geometry"/>
                </mxCell>
                <mxCell id="56" style="edgeStyle=none;html=1;" parent="3" source="57" target="50" edge="1">
                    <mxGeometry relative="1" as="geometry"/>
                </mxCell>
                <mxCell id="57" value="IRegistrable" style="whiteSpace=wrap;html=1;" parent="3" vertex="1">
                    <mxGeometry x="360" y="330" width="120" height="60" as="geometry"/>
                </mxCell>
                <mxCell id="58" value="" style="edgeStyle=none;html=1;" parent="3" source="59" target="61" edge="1">
                    <mxGeometry relative="1" as="geometry">
                        <mxPoint x="340" y="560" as="targetPoint"/>
                    </mxGeometry>
                </mxCell>
                <mxCell id="59" value="Selection &lt;br&gt;Manager" style="ellipse;whiteSpace=wrap;html=1;" parent="3" vertex="1">
                    <mxGeometry x="280" y="440" width="120" height="80" as="geometry"/>
                </mxCell>
                <mxCell id="61" value="&lt;span&gt;Selection&lt;/span&gt;&lt;br&gt;&lt;span&gt;Response&lt;/span&gt;" style="shape=process;whiteSpace=wrap;html=1;backgroundOutline=1;" parent="3" vertex="1">
                    <mxGeometry x="280" y="570" width="120" height="60" as="geometry"/>
                </mxCell>
                <mxCell id="63" value="PreSelection&lt;br&gt;Response" style="shape=process;whiteSpace=wrap;html=1;backgroundOutline=1;" parent="3" vertex="1">
                    <mxGeometry x="440" y="570" width="120" height="60" as="geometry"/>
                </mxCell>
                <mxCell id="80" value="" style="endArrow=none;startArrow=diamondThin;endFill=0;startFill=1;html=1;verticalAlign=bottom;labelBackgroundColor=none;strokeWidth=1;startSize=24;endSize=8;rounded=0;elbow=vertical;" parent="3" source="82" target="83" edge="1">
                    <mxGeometry x="-0.6667" y="-30" width="160" relative="1" as="geometry">
                        <mxPoint x="240" y="880" as="sourcePoint"/>
                        <mxPoint x="360" y="880" as="targetPoint"/>
                        <Array as="points"/>
                        <mxPoint as="offset"/>
                    </mxGeometry>
                </mxCell>
                <mxCell id="82" value="Regiment" style="rounded=0;whiteSpace=wrap;html=1;fillColor=#f5f5f5;fontColor=#333333;strokeColor=#000000;fontSize=16;fontFamily=Times New Roman;fontStyle=1" parent="3" vertex="1">
                    <mxGeometry x="120" y="850" width="120" height="60" as="geometry"/>
                </mxCell>
                <mxCell id="88" value="" style="rounded=0;elbow=vertical;html=1;startArrow=diamondThin;startFill=1;endArrow=none;endFill=0;startSize=24;endSize=8;edgeStyle=orthogonalEdgeStyle;" parent="3" source="83" target="84" edge="1">
                    <mxGeometry x="0.9" y="-20" relative="1" as="geometry">
                        <Array as="points">
                            <mxPoint x="600" y="880"/>
                            <mxPoint x="600" y="800"/>
                        </Array>
                        <mxPoint as="offset"/>
                    </mxGeometry>
                </mxCell>
                <mxCell id="92" value="" style="edgeStyle=orthogonalEdgeStyle;rounded=0;html=1;startArrow=diamondThin;startFill=1;endArrow=none;endFill=0;startSize=24;endSize=8;elbow=vertical;" parent="3" source="83" target="85" edge="1">
                    <mxGeometry x="0.8333" y="-20" relative="1" as="geometry">
                        <mxPoint as="offset"/>
                    </mxGeometry>
                </mxCell>
                <mxCell id="93" value="" style="edgeStyle=orthogonalEdgeStyle;rounded=0;html=1;startArrow=diamondThin;startFill=1;endArrow=none;endFill=0;startSize=24;endSize=8;elbow=vertical;" parent="3" source="83" target="86" edge="1">
                    <mxGeometry x="-0.7" y="-20" relative="1" as="geometry">
                        <Array as="points">
                            <mxPoint x="600" y="880"/>
                            <mxPoint x="600" y="960"/>
                        </Array>
                        <mxPoint as="offset"/>
                    </mxGeometry>
                </mxCell>
                <mxCell id="83" value="Unit" style="rounded=0;whiteSpace=wrap;html=1;fillColor=#f5f5f5;fontColor=#333333;strokeColor=#000000;fontFamily=Times New Roman;fontSize=16;fontStyle=1" parent="3" vertex="1">
                    <mxGeometry x="400" y="850" width="120" height="60" as="geometry"/>
                </mxCell>
                <mxCell id="84" value="Preselection" style="rounded=0;whiteSpace=wrap;html=1;fillColor=#f5f5f5;fontColor=#333333;strokeColor=#000000;fontFamily=Times New Roman;fontSize=16;fontStyle=1" parent="3" vertex="1">
                    <mxGeometry x="640" y="770" width="120" height="60" as="geometry"/>
                </mxCell>
                <mxCell id="85" value="Selection" style="rounded=0;whiteSpace=wrap;html=1;fillColor=#f5f5f5;fontColor=#333333;strokeColor=#000000;fontSize=16;fontStyle=1;fontFamily=Times New Roman;" parent="3" vertex="1">
                    <mxGeometry x="640" y="850" width="120" height="60" as="geometry"/>
                </mxCell>
                <mxCell id="86" value="Placement" style="rounded=0;whiteSpace=wrap;html=1;fillColor=#f5f5f5;fontColor=#333333;strokeColor=#000000;fontSize=16;fontStyle=1;fontFamily=Times New Roman;" parent="3" vertex="1">
                    <mxGeometry x="640" y="930" width="120" height="60" as="geometry"/>
                </mxCell>
                <mxCell id="98" value="&lt;h2&gt;Unit-Regiment Relation&lt;/h2&gt;" style="text;html=1;strokeColor=default;fillColor=none;align=center;verticalAlign=middle;whiteSpace=wrap;rounded=0;fontFamily=Times New Roman;fontSize=16;" parent="3" vertex="1">
                    <mxGeometry x="120" y="720" width="640" height="40" as="geometry"/>
                </mxCell>
                <mxCell id="130" style="edgeStyle=orthogonalEdgeStyle;rounded=0;html=1;fontFamily=Times New Roman;fontSize=16;startArrow=diamondThin;startFill=0;endArrow=open;endFill=0;startSize=24;endSize=8;elbow=vertical;entryX=1;entryY=0.5;entryDx=0;entryDy=0;" parent="3" source="99" target="143" edge="1">
                    <mxGeometry relative="1" as="geometry">
                        <Array as="points">
                            <mxPoint x="514" y="1620"/>
                            <mxPoint x="414" y="1620"/>
                        </Array>
                    </mxGeometry>
                </mxCell>
                <mxCell id="131" style="edgeStyle=orthogonalEdgeStyle;rounded=0;html=1;fontFamily=Times New Roman;fontSize=16;startArrow=diamondThin;startFill=0;endArrow=open;endFill=0;startSize=24;endSize=8;elbow=vertical;entryX=1;entryY=0.5;entryDx=0;entryDy=0;" parent="3" source="99" target="141" edge="1">
                    <mxGeometry relative="1" as="geometry">
                        <Array as="points">
                            <mxPoint x="514" y="1700"/>
                            <mxPoint x="414" y="1700"/>
                        </Array>
                    </mxGeometry>
                </mxCell>
                <mxCell id="133" style="edgeStyle=orthogonalEdgeStyle;rounded=0;html=1;fontFamily=Times New Roman;fontSize=16;startArrow=diamondThin;startFill=0;endArrow=open;endFill=0;startSize=24;endSize=8;elbow=vertical;entryX=1;entryY=0.5;entryDx=0;entryDy=0;" parent="3" source="99" target="142" edge="1">
                    <mxGeometry relative="1" as="geometry">
                        <Array as="points">
                            <mxPoint x="514" y="1780"/>
                            <mxPoint x="434" y="1780"/>
                        </Array>
                    </mxGeometry>
                </mxCell>
                <mxCell id="99" value="Regiment" style="rounded=0;whiteSpace=wrap;html=1;fillColor=#f5f5f5;fontColor=#333333;strokeColor=#000000;fontSize=16;fontFamily=Times New Roman;fontStyle=1" parent="3" vertex="1">
                    <mxGeometry x="454" y="1510" width="120" height="60" as="geometry"/>
                </mxCell>
                <mxCell id="100" value="&lt;h2&gt;Unit-Regiment Relation&lt;/h2&gt;" style="text;html=1;strokeColor=default;fillColor=none;align=center;verticalAlign=middle;whiteSpace=wrap;rounded=0;fontFamily=Times New Roman;fontSize=16;" parent="3" vertex="1">
                    <mxGeometry x="80" y="1440" width="640" height="40" as="geometry"/>
                </mxCell>
                <mxCell id="101" value="" style="endArrow=open;startArrow=diamondThin;endFill=0;startFill=0;html=1;verticalAlign=bottom;labelBackgroundColor=none;strokeWidth=1;startSize=24;endSize=8;rounded=0;elbow=vertical;" parent="3" source="103" target="99" edge="1">
                    <mxGeometry x="-0.6667" y="-30" width="160" relative="1" as="geometry">
                        <mxPoint x="374" y="1540" as="sourcePoint"/>
                        <mxPoint x="454" y="1540" as="targetPoint"/>
                        <Array as="points"/>
                        <mxPoint as="offset"/>
                    </mxGeometry>
                </mxCell>
                <mxCell id="103" value="Regiment&lt;br&gt;Register" style="rounded=0;whiteSpace=wrap;html=1;fillColor=#f5f5f5;fontColor=#333333;strokeColor=#000000;fontSize=16;fontFamily=Times New Roman;fontStyle=1" parent="3" vertex="1">
                    <mxGeometry x="254" y="1510" width="120" height="60" as="geometry"/>
                </mxCell>
                <mxCell id="105" value="«interface»&lt;br&gt;&lt;b&gt;Register&lt;/b&gt;" style="html=1;fontFamily=Times New Roman;fontSize=16;strokeColor=#000000;" parent="3" vertex="1">
                    <mxGeometry x="970" y="1160" width="110" height="50" as="geometry"/>
                </mxCell>
                <mxCell id="106" value="Use" style="endArrow=open;endSize=12;dashed=1;html=1;rounded=0;fontFamily=Times New Roman;fontSize=16;elbow=vertical;" parent="3" source="105" edge="1">
                    <mxGeometry x="-0.1429" width="160" relative="1" as="geometry">
                        <mxPoint x="1185" y="1190" as="sourcePoint"/>
                        <mxPoint x="1025" y="1270" as="targetPoint"/>
                        <mxPoint as="offset"/>
                    </mxGeometry>
                </mxCell>
                <mxCell id="113" value="&amp;lt;&amp;lt;interface&amp;gt;&amp;gt;&lt;br&gt;&lt;b&gt;Register&lt;/b&gt;" style="swimlane;fontStyle=0;align=center;verticalAlign=top;childLayout=stackLayout;horizontal=1;startSize=55;horizontalStack=0;resizeParent=1;resizeParentMax=0;resizeLast=0;collapsible=0;marginBottom=0;html=1;fontFamily=Times New Roman;fontSize=16;strokeColor=#000000;" parent="3" vertex="1">
                    <mxGeometry x="930" y="920" width="200" height="183" as="geometry"/>
                </mxCell>
                <mxCell id="115" value="attribute1" style="text;html=1;strokeColor=none;fillColor=none;align=left;verticalAlign=middle;spacingLeft=4;spacingRight=4;overflow=hidden;rotatable=0;points=[[0,0.5],[1,0.5]];portConstraint=eastwest;fontFamily=Times New Roman;fontSize=16;" parent="113" vertex="1">
                    <mxGeometry y="55" width="200" height="20" as="geometry"/>
                </mxCell>
                <mxCell id="116" value="inherited attribute2" style="text;html=1;strokeColor=none;fillColor=none;align=left;verticalAlign=middle;spacingLeft=4;spacingRight=4;overflow=hidden;rotatable=0;points=[[0,0.5],[1,0.5]];portConstraint=eastwest;fontColor=#808080;fontFamily=Times New Roman;fontSize=16;" parent="113" vertex="1">
                    <mxGeometry y="75" width="200" height="20" as="geometry"/>
                </mxCell>
                <mxCell id="117" value="..." style="text;html=1;strokeColor=none;fillColor=none;align=left;verticalAlign=middle;spacingLeft=4;spacingRight=4;overflow=hidden;rotatable=0;points=[[0,0.5],[1,0.5]];portConstraint=eastwest;fontFamily=Times New Roman;fontSize=16;" parent="113" vertex="1">
                    <mxGeometry y="95" width="200" height="20" as="geometry"/>
                </mxCell>
                <mxCell id="118" value="" style="line;strokeWidth=1;fillColor=none;align=left;verticalAlign=middle;spacingTop=-1;spacingLeft=3;spacingRight=3;rotatable=0;labelPosition=right;points=[];portConstraint=eastwest;fontFamily=Times New Roman;fontSize=16;" parent="113" vertex="1">
                    <mxGeometry y="115" width="200" height="8" as="geometry"/>
                </mxCell>
                <mxCell id="119" value="operations" style="text;html=1;strokeColor=none;fillColor=none;align=center;verticalAlign=middle;spacingLeft=4;spacingRight=4;overflow=hidden;rotatable=0;points=[[0,0.5],[1,0.5]];portConstraint=eastwest;fontFamily=Times New Roman;fontSize=16;" parent="113" vertex="1">
                    <mxGeometry y="123" width="200" height="20" as="geometry"/>
                </mxCell>
                <mxCell id="121" value="+" style="text;html=1;strokeColor=none;fillColor=none;align=left;verticalAlign=middle;spacingLeft=4;spacingRight=4;overflow=hidden;rotatable=0;points=[[0,0.5],[1,0.5]];portConstraint=eastwest;fontFamily=Times New Roman;fontSize=16;" parent="113" vertex="1">
                    <mxGeometry y="143" width="200" height="20" as="geometry"/>
                </mxCell>
                <mxCell id="120" value="operation1" style="text;html=1;strokeColor=none;fillColor=none;align=left;verticalAlign=middle;spacingLeft=4;spacingRight=4;overflow=hidden;rotatable=0;points=[[0,0.5],[1,0.5]];portConstraint=eastwest;fontFamily=Times New Roman;fontSize=16;" parent="113" vertex="1">
                    <mxGeometry y="163" width="200" height="20" as="geometry"/>
                </mxCell>
                <mxCell id="122" value="Preselection&lt;br&gt;Register" style="rounded=0;whiteSpace=wrap;html=1;fillColor=#f5f5f5;fontColor=#333333;strokeColor=#000000;fontSize=16;fontFamily=Times New Roman;fontStyle=1" parent="3" vertex="1">
                    <mxGeometry x="254" y="1590" width="120" height="60" as="geometry"/>
                </mxCell>
                <mxCell id="123" value="Selection&lt;br&gt;Register" style="rounded=0;whiteSpace=wrap;html=1;fillColor=#f5f5f5;fontColor=#333333;strokeColor=#000000;fontSize=16;fontFamily=Times New Roman;fontStyle=1" parent="3" vertex="1">
                    <mxGeometry x="254" y="1670" width="120" height="60" as="geometry"/>
                </mxCell>
                <mxCell id="124" value="Placement&lt;br&gt;Register" style="rounded=0;whiteSpace=wrap;html=1;fillColor=#f5f5f5;fontColor=#333333;strokeColor=#000000;fontSize=16;fontFamily=Times New Roman;fontStyle=1" parent="3" vertex="1">
                    <mxGeometry x="254" y="1750" width="120" height="60" as="geometry"/>
                </mxCell>
                <mxCell id="134" value="1" style="text;html=1;strokeColor=default;fillColor=none;align=center;verticalAlign=middle;whiteSpace=wrap;rounded=0;fontFamily=Times New Roman;fontSize=12;strokeWidth=0.5;" parent="3" vertex="1">
                    <mxGeometry x="384" y="1630" width="20" height="20" as="geometry"/>
                </mxCell>
                <mxCell id="137" value="1" style="text;html=1;strokeColor=default;fillColor=none;align=center;verticalAlign=middle;whiteSpace=wrap;rounded=0;fontFamily=Times New Roman;fontSize=12;strokeWidth=0.5;" parent="3" vertex="1">
                    <mxGeometry x="384" y="1710" width="20" height="20" as="geometry"/>
                </mxCell>
                <mxCell id="138" value="1" style="text;html=1;strokeColor=default;fillColor=none;align=center;verticalAlign=middle;whiteSpace=wrap;rounded=0;fontFamily=Times New Roman;fontSize=12;strokeWidth=0.5;" parent="3" vertex="1">
                    <mxGeometry x="384" y="1790" width="20" height="20" as="geometry"/>
                </mxCell>
                <mxCell id="139" value="1" style="text;html=1;strokeColor=default;fillColor=none;align=center;verticalAlign=middle;whiteSpace=wrap;rounded=0;fontFamily=Times New Roman;fontSize=12;strokeWidth=0.5;" parent="3" vertex="1">
                    <mxGeometry x="384" y="1550" width="20" height="20" as="geometry"/>
                </mxCell>
                <mxCell id="140" value="*" style="text;html=1;strokeColor=default;fillColor=none;align=center;verticalAlign=middle;whiteSpace=wrap;rounded=0;fontFamily=Times New Roman;fontSize=12;strokeWidth=0.5;" parent="3" vertex="1">
                    <mxGeometry x="424" y="1550" width="20" height="20" as="geometry"/>
                </mxCell>
                <mxCell id="141" value="" style="ellipse;fillColor=#000000;strokeColor=none;fontFamily=Times New Roman;fontSize=12;" parent="3" vertex="1">
                    <mxGeometry x="374" y="1695" width="10" height="10" as="geometry"/>
                </mxCell>
                <mxCell id="142" value="" style="ellipse;fillColor=#000000;strokeColor=none;fontFamily=Times New Roman;fontSize=12;" parent="3" vertex="1">
                    <mxGeometry x="374" y="1775" width="10" height="10" as="geometry"/>
                </mxCell>
                <mxCell id="143" value="" style="ellipse;fillColor=#000000;strokeColor=none;fontFamily=Times New Roman;fontSize=12;" parent="3" vertex="1">
                    <mxGeometry x="374" y="1615" width="10" height="10" as="geometry"/>
                </mxCell>
                <mxCell id="145" value="+Highlights" style="text;html=1;strokeColor=default;fillColor=none;align=center;verticalAlign=middle;whiteSpace=wrap;rounded=0;fontFamily=Times New Roman;fontSize=12;strokeWidth=0.5;" parent="3" vertex="1">
                    <mxGeometry x="444" y="1595" width="60" height="20" as="geometry"/>
                </mxCell>
                <mxCell id="146" value="+Highlights" style="text;html=1;strokeColor=default;fillColor=none;align=center;verticalAlign=middle;whiteSpace=wrap;rounded=0;fontFamily=Times New Roman;fontSize=12;strokeWidth=0.5;" parent="3" vertex="1">
                    <mxGeometry x="444" y="1675" width="60" height="20" as="geometry"/>
                </mxCell>
                <mxCell id="148" value="1" style="text;html=1;strokeColor=default;fillColor=none;align=center;verticalAlign=middle;whiteSpace=wrap;rounded=0;fontFamily=Times New Roman;fontSize=12;strokeWidth=0.5;" parent="3" vertex="1">
                    <mxGeometry x="610" y="890" width="20" height="20" as="geometry"/>
                </mxCell>
                <mxCell id="149" value="1" style="text;html=1;strokeColor=default;fillColor=none;align=center;verticalAlign=middle;whiteSpace=wrap;rounded=0;fontFamily=Times New Roman;fontSize=12;strokeWidth=0.5;" parent="3" vertex="1">
                    <mxGeometry x="610" y="810" width="20" height="20" as="geometry"/>
                </mxCell>
                <mxCell id="150" value="1" style="text;html=1;strokeColor=default;fillColor=none;align=center;verticalAlign=middle;whiteSpace=wrap;rounded=0;fontFamily=Times New Roman;fontSize=12;strokeWidth=0.5;" parent="3" vertex="1">
                    <mxGeometry x="524" y="890" width="20" height="20" as="geometry"/>
                </mxCell>
                <mxCell id="151" value="1" style="text;html=1;strokeColor=default;fillColor=none;align=center;verticalAlign=middle;whiteSpace=wrap;rounded=0;fontFamily=Times New Roman;fontSize=12;strokeWidth=0.5;" parent="3" vertex="1">
                    <mxGeometry x="250" y="890" width="20" height="20" as="geometry"/>
                </mxCell>
                <mxCell id="153" value="*{ordered}" style="text;html=1;strokeColor=default;fillColor=none;align=center;verticalAlign=middle;whiteSpace=wrap;rounded=0;fontFamily=Times New Roman;fontSize=12;strokeWidth=0.5;" vertex="1" parent="3">
                    <mxGeometry x="330" y="890" width="60" height="20" as="geometry"/>
                </mxCell>
                <mxCell id="154" value="+Units" style="text;html=1;strokeColor=default;fillColor=none;align=center;verticalAlign=middle;whiteSpace=wrap;rounded=0;fontFamily=Times New Roman;fontSize=12;strokeWidth=0.5;" vertex="1" parent="3">
                    <mxGeometry x="330" y="850" width="60" height="20" as="geometry"/>
                </mxCell>
                <mxCell id="155" style="edgeStyle=orthogonalEdgeStyle;rounded=0;html=1;fontFamily=Times New Roman;fontSize=16;startArrow=diamondThin;startFill=0;endArrow=open;endFill=0;startSize=24;endSize=8;elbow=vertical;entryX=1;entryY=0.5;entryDx=0;entryDy=0;" edge="1" parent="3" target="166">
                    <mxGeometry relative="1" as="geometry">
                        <Array as="points">
                            <mxPoint x="460" y="990"/>
                        </Array>
                        <mxPoint x="460" y="910" as="sourcePoint"/>
                    </mxGeometry>
                </mxCell>
                <mxCell id="156" style="edgeStyle=orthogonalEdgeStyle;rounded=0;html=1;fontFamily=Times New Roman;fontSize=16;startArrow=diamondThin;startFill=0;endArrow=open;endFill=0;startSize=24;endSize=8;elbow=vertical;entryX=1;entryY=0.5;entryDx=0;entryDy=0;" edge="1" parent="3" target="164">
                    <mxGeometry relative="1" as="geometry">
                        <Array as="points">
                            <mxPoint x="460" y="1070"/>
                        </Array>
                        <mxPoint x="460" y="910" as="sourcePoint"/>
                    </mxGeometry>
                </mxCell>
                <mxCell id="157" style="edgeStyle=orthogonalEdgeStyle;rounded=0;html=1;fontFamily=Times New Roman;fontSize=16;startArrow=diamondThin;startFill=0;endArrow=open;endFill=0;startSize=24;endSize=8;elbow=vertical;entryX=1;entryY=0.5;entryDx=0;entryDy=0;" edge="1" parent="3" target="165">
                    <mxGeometry relative="1" as="geometry">
                        <Array as="points">
                            <mxPoint x="460" y="1150"/>
                        </Array>
                        <mxPoint x="460" y="910" as="sourcePoint"/>
                    </mxGeometry>
                </mxCell>
                <mxCell id="158" value="Preselection&lt;br&gt;Register" style="rounded=0;whiteSpace=wrap;html=1;fillColor=#f5f5f5;fontColor=#333333;strokeColor=#000000;fontSize=16;fontFamily=Times New Roman;fontStyle=1" vertex="1" parent="3">
                    <mxGeometry x="200" y="960" width="120" height="60" as="geometry"/>
                </mxCell>
                <mxCell id="159" value="Selection&lt;br&gt;Register" style="rounded=0;whiteSpace=wrap;html=1;fillColor=#f5f5f5;fontColor=#333333;strokeColor=#000000;fontSize=16;fontFamily=Times New Roman;fontStyle=1" vertex="1" parent="3">
                    <mxGeometry x="160" y="1040" width="120" height="60" as="geometry"/>
                </mxCell>
                <mxCell id="160" value="Placement&lt;br&gt;Register" style="rounded=0;whiteSpace=wrap;html=1;fillColor=#f5f5f5;fontColor=#333333;strokeColor=#000000;fontSize=16;fontFamily=Times New Roman;fontStyle=1" vertex="1" parent="3">
                    <mxGeometry x="120" y="1120" width="120" height="60" as="geometry"/>
                </mxCell>
                <mxCell id="161" value="1" style="text;html=1;strokeColor=default;fillColor=none;align=center;verticalAlign=middle;whiteSpace=wrap;rounded=0;fontFamily=Times New Roman;fontSize=12;strokeWidth=0.5;" vertex="1" parent="3">
                    <mxGeometry x="330" y="1000" width="20" height="20" as="geometry"/>
                </mxCell>
                <mxCell id="162" value="1" style="text;html=1;strokeColor=default;fillColor=none;align=center;verticalAlign=middle;whiteSpace=wrap;rounded=0;fontFamily=Times New Roman;fontSize=12;strokeWidth=0.5;" vertex="1" parent="3">
                    <mxGeometry x="290" y="1080" width="20" height="20" as="geometry"/>
                </mxCell>
                <mxCell id="163" value="1" style="text;html=1;strokeColor=default;fillColor=none;align=center;verticalAlign=middle;whiteSpace=wrap;rounded=0;fontFamily=Times New Roman;fontSize=12;strokeWidth=0.5;" vertex="1" parent="3">
                    <mxGeometry x="250" y="1160" width="20" height="20" as="geometry"/>
                </mxCell>
                <mxCell id="164" value="" style="ellipse;fillColor=#000000;strokeColor=none;fontFamily=Times New Roman;fontSize=12;" vertex="1" parent="3">
                    <mxGeometry x="280" y="1065" width="10" height="10" as="geometry"/>
                </mxCell>
                <mxCell id="165" value="" style="ellipse;fillColor=#000000;strokeColor=none;fontFamily=Times New Roman;fontSize=12;" vertex="1" parent="3">
                    <mxGeometry x="240" y="1145" width="10" height="10" as="geometry"/>
                </mxCell>
                <mxCell id="166" value="" style="ellipse;fillColor=#000000;strokeColor=none;fontFamily=Times New Roman;fontSize=12;" vertex="1" parent="3">
                    <mxGeometry x="320" y="985" width="10" height="10" as="geometry"/>
                </mxCell>
                <mxCell id="167" value="+Preselections" style="text;html=1;strokeColor=default;fillColor=none;align=center;verticalAlign=middle;whiteSpace=wrap;rounded=0;fontFamily=Times New Roman;fontSize=12;strokeWidth=0.5;" vertex="1" parent="3">
                    <mxGeometry x="374" y="965" width="80" height="20" as="geometry"/>
                </mxCell>
                <mxCell id="169" value="1" style="text;html=1;strokeColor=default;fillColor=none;align=center;verticalAlign=middle;whiteSpace=wrap;rounded=0;fontFamily=Times New Roman;fontSize=12;strokeWidth=0.5;" vertex="1" parent="3">
                    <mxGeometry x="610" y="970" width="20" height="20" as="geometry"/>
                </mxCell>
                <mxCell id="170" value="+Placements" style="text;html=1;strokeColor=default;fillColor=none;align=center;verticalAlign=middle;whiteSpace=wrap;rounded=0;fontFamily=Times New Roman;fontSize=12;strokeWidth=0.5;" vertex="1" parent="3">
                    <mxGeometry x="374" y="1125" width="80" height="20" as="geometry"/>
                </mxCell>
                <mxCell id="171" value="+Selections" style="text;html=1;strokeColor=default;fillColor=none;align=center;verticalAlign=middle;whiteSpace=wrap;rounded=0;fontFamily=Times New Roman;fontSize=12;strokeWidth=0.5;" vertex="1" parent="3">
                    <mxGeometry x="374" y="1045" width="80" height="20" as="geometry"/>
                </mxCell>
                <mxCell id="173" value="*{ordered}" style="text;html=1;strokeColor=default;fillColor=none;align=center;verticalAlign=middle;whiteSpace=wrap;rounded=0;fontFamily=Times New Roman;fontSize=12;strokeWidth=0.5;" vertex="1" parent="3">
                    <mxGeometry x="394" y="995" width="60" height="20" as="geometry"/>
                </mxCell>
                <mxCell id="174" value="*{ordered}" style="text;html=1;strokeColor=default;fillColor=none;align=center;verticalAlign=middle;whiteSpace=wrap;rounded=0;fontFamily=Times New Roman;fontSize=12;strokeWidth=0.5;" vertex="1" parent="3">
                    <mxGeometry x="394" y="1075" width="60" height="20" as="geometry"/>
                </mxCell>
                <mxCell id="175" value="*{ordered}" style="text;html=1;strokeColor=default;fillColor=none;align=center;verticalAlign=middle;whiteSpace=wrap;rounded=0;fontFamily=Times New Roman;fontSize=12;strokeWidth=0.5;" vertex="1" parent="3">
                    <mxGeometry x="394" y="1155" width="60" height="20" as="geometry"/>
                </mxCell>
                <mxCell id="195" style="edgeStyle=orthogonalEdgeStyle;rounded=0;jumpSize=6;html=1;fontFamily=Times New Roman;fontSize=12;startArrow=none;startFill=0;endArrow=classic;endFill=1;startSize=6;endSize=6;elbow=vertical;" edge="1" parent="3" source="192" target="193">
                    <mxGeometry relative="1" as="geometry"/>
                </mxCell>
                <mxCell id="192" value="Preselection Response" style="ellipse;whiteSpace=wrap;html=1;" vertex="1" parent="3">
                    <mxGeometry x="650" y="450" width="120" height="80" as="geometry"/>
                </mxCell>
                <mxCell id="197" value="" style="edgeStyle=orthogonalEdgeStyle;rounded=0;jumpSize=6;html=1;fontFamily=Times New Roman;fontSize=12;startArrow=none;startFill=0;endArrow=classic;endFill=1;startSize=6;endSize=6;elbow=vertical;" edge="1" parent="3" source="193" target="196">
                    <mxGeometry relative="1" as="geometry"/>
                </mxCell>
                <mxCell id="193" value="Appèle le registre&lt;br&gt;correspondant" style="ellipse;whiteSpace=wrap;html=1;fillColor=rgb(255, 255, 255);strokeColor=rgb(0, 0, 0);fontColor=rgb(0, 0, 0);" vertex="1" parent="3">
                    <mxGeometry x="850" y="450" width="120" height="80" as="geometry"/>
                </mxCell>
                <mxCell id="196" value="comment ?" style="ellipse;whiteSpace=wrap;html=1;fillColor=rgb(255, 255, 255);strokeColor=rgb(0, 0, 0);fontColor=rgb(0, 0, 0);" vertex="1" parent="3">
                    <mxGeometry x="1050" y="450" width="120" height="80" as="geometry"/>
                </mxCell>
            </root>
        </mxGraphModel>
    </diagram>
</mxfile>